<?xml version="1.0" encoding="UTF-8" standalone="no"?>
<!-- Created with Inkscape (http://www.inkscape.org/) -->

<svg
   width="105.05943mm"
   height="42.273411mm"
   viewBox="0 0 105.05943 42.273411"
   version="1.1"
   id="svg1"
   xml:space="preserve"
   xmlns="http://www.w3.org/2000/svg"
   xmlns:svg="http://www.w3.org/2000/svg"><defs
     id="defs1" /><g
     id="layer1"
     transform="translate(-27.26263,-78.929081)"><g
       id="g1"
       transform="matrix(0.26458333,0,0,0.26458333,16.679297,68.600796)"><rect
         style="fill:#ffffff;fill-opacity:1;stroke:none;stroke-width:7.55906"
         id="rect1"
         width="351.10892"
         height="126.07159"
         x="63.70393"
         y="57.595509" /><g
         fill="#3b82f6"
         id="g13"><path
           d="M 73.1,198.45 C 59.55,196.15 47.65,186.35 42.75,173.25 40,166 40,165.95 40,119 40,72.05 40.05,71.45 42.75,64.55 47.4,52.7 57.25,43.85 70,40.2 c 3.15,-0.9 8.7,-0.95 166.75,-1.1 179.1,-0.15 166.8,-0.3 175,2.85 12.7,4.9 22.15,16.45 24.5,29.85 1.1,6.4 1.1,87.95 0,94.4 -2.6,14.95 -13.95,27.25 -29.25,31.6 -3.15,0.9 -9,0.95 -167.25,1 C 147,198.85 74.6,198.7 73.1,198.45 Z m 113.15,-50.5 C 191.5,146 196.5,139.8 196.5,135.3 v -1.8 h -4.45 -4.45 l -1.6,2.8 c -1.2,2.1 -2.05,3 -3.65,3.7 -5.8,2.65 -12,-0.55 -13.85,-7.25 -0.8,-2.9 -0.4,-11.3 0.65,-13.8 0.95,-2.1 4.3,-5.3 6.1,-5.75 0.7,-0.15 2.65,-0.2 4.25,-0.1 3.45,0.25 5.4,1.7 6.85,5 l 0.85,1.9 h 4.7 4.75 l -0.3,-2.25 c -1.15,-8.3 -9.7,-13.85 -20.05,-13.05 -7.75,0.55 -13.35,4.4 -16.8,11.55 -1.6,3.25 -1.7,3.95 -1.9,9.3 -0.25,6.4 0.4,9.75 2.8,14.1 2.45,4.6 7.9,8.35 13.5,9.35 3.35,0.6 9.25,0.1 12.35,-1.05 z m 93,1 c 4,-0.75 7.15,-2.4 9.95,-5.3 2.3,-2.4 4.3,-6.5 4.3,-8.9 0,-1.25 -0.05,-1.25 -4.65,-1.25 h -4.7 l -0.9,2 c -1.2,2.6 -3.75,4.85 -6,5.3 -5.85,1.1 -10.7,-2.45 -12.3,-8.9 -1.2,-5.05 0.3,-13.1 2.95,-16.05 2.7,-3 8.9,-3.85 12.15,-1.65 1.65,1.15 3.45,3.9 3.45,5.25 0,0.35 1.7,0.55 5.05,0.55 h 5.05 l -0.35,-1.85 c -0.9,-4.95 -4.2,-9.35 -8.4,-11.35 -8.6,-4 -18.5,-2.6 -24.55,3.4 -5.35,5.35 -7.55,14.65 -5.55,23.15 2.7,11.4 12.7,17.8 24.5,15.6 z m -172.1,-0.9 c 0.4,-0.4 0.35,-1.45 -0.2,-4.15 l -0.7,-3.55 -2.7,-0.1 c -2.3,-0.1 -2.9,-0.3 -3.9,-1.45 -1.15,-1.35 -1.15,-1.5 -1.15,-13.6 V 113 h 4.15 c 2.3,0 4.3,-0.1 4.4,-0.2 0.1,-0.1 0.15,-1.9 0.05,-4 l -0.2,-3.8 h -4.2 -4.2 V 99.75 94.5 h -5 -5 v 5.25 5.25 h -3 -3 v 2.9 c 0,1.55 -0.15,3.35 -0.3,4 -0.3,1.05 -0.2,1.1 3,1.1 h 3.3 v 13.75 c 0,12.65 0.1,13.95 0.95,15.7 1.7,3.25 4.25,5.1 8.8,6.25 1.75,0.45 8.3,-0.05 8.9,-0.65 z m 33.5,-0.45 c 11.35,-4.05 13.45,-17.7 3.35,-22.05 -1.35,-0.6 -5.45,-1.75 -9.05,-2.55 -8.95,-2.05 -10.3,-2.95 -9.85,-6.8 0.3,-2.85 5.65,-4.85 9.95,-3.7 1.95,0.55 2.65,1.1 4.8,3.9 0.85,1.1 1.05,1.1 5.05,0.65 2.3,-0.25 4.3,-0.55 4.45,-0.7 0.45,-0.5 -0.85,-3.7 -2.3,-5.75 -5.25,-7.2 -21,-8.2 -28.55,-1.75 -2.7,2.35 -4,5.1 -4,8.65 0,3.2 1.2,6.15 3.3,8.1 1.7,1.6 6.1,3.6 8.95,4.1 9.85,1.75 13.25,3.35 13.25,6.25 0,3.2 -3.1,5.2 -8.05,5.15 -4.5,0 -6.45,-1.1 -8.7,-4.8 -0.45,-0.75 -1.1,-0.8 -4.6,-0.5 -5.3,0.45 -5.5,0.55 -4.7,3.2 1.3,4.3 6.4,8.3 12.2,9.5 3.5,0.75 11.25,0.25 14.5,-0.9 z m 182.6,0.05 c 2.3,-1.2 4.45,-3.2 5.8,-5.4 l 0.95,-1.5 0.05,1.4 c 0.05,0.75 0.15,1.6 0.2,1.85 0.05,0.3 0.15,1.4 0.2,2.5 l 0.05,2 h 4.7 4.65 l 0.35,-1.95 c 0.35,-2.45 0.4,-39.75 0,-40.8 -0.25,-0.6 -1.25,-0.75 -5.25,-0.75 h -4.9 l -0.15,14.4 -0.15,14.45 -1.35,2 c -2.55,3.85 -8.45,5.35 -11.9,3.05 -0.9,-0.65 -2.15,-1.8 -2.7,-2.55 -1,-1.35 -1.05,-2.1 -1.2,-16.4 L 312.45,105 h -5.2 -5.25 v 14.4 c 0,18.55 0.45,21.05 4.45,25.25 3.2,3.4 5.9,4.4 11.3,4.15 2.3,-0.1 4.2,-0.5 5.5,-1.15 z m 70.3,0.5 c 0.4,-0.4 0.3,-1.7 -0.3,-4.35 -0.85,-3.85 -0.85,-3.85 -2.3,-3.55 -1.85,0.4 -4.8,-0.55 -5.45,-1.75 -0.3,-0.55 -0.5,-6.05 -0.5,-13.2 V 113 h 4.25 4.25 v -4 -4 H 389.25 385 V 99.75 94.5 h -5.25 -5.25 v 5.25 5.25 h -3 -3 v 4 4 h 3 3 v 13.2 c 0,13.65 0.2,15.2 2.2,17.95 1.2,1.65 4.6,3.8 6.95,4.4 2.15,0.55 9.25,0.25 9.9,-0.4 z M 215.5,126.75 V 105 h -5 -5 v 21.75 21.75 h 5 5 z m 21.1,7.35 0.15,-14.45 1.35,-2 c 1.9,-2.85 4.3,-3.9 9.05,-3.9 H 251 v -4.7 -4.65 l -3.35,0.2 c -1.9,0.1 -4.25,0.6 -5.25,1.1 -2.3,1.1 -4.85,3.65 -5.2,5.15 -0.6,2.3 -1.2,1.05 -1.2,-2.35 V 105 h -4.75 -4.75 v 21.75 21.75 h 4.95 5 z M 361,127.25 c 0,-11.7 0.05,-21.4 0.15,-21.6 0.05,-0.25 -2.2,-0.45 -5,-0.55 L 351,104.95 v 21.8 21.75 h 5 5 z M 214.55,97.2 c 1.2,-1.15 1.45,-1.8 1.45,-3.65 -0.05,-2.45 -0.5,-3.35 -2.5,-4.7 -2.95,-2.05 -7.85,-0.2 -8.7,3.3 -0.65,2.5 0.05,4.3 2.2,5.75 2.35,1.6 5.45,1.3 7.55,-0.7 z M 359.4,98 c 1.95,-1.2 2.8,-3.1 2.4,-5.45 -0.85,-5.3 -8.8,-6.15 -11.1,-1.2 -1.05,2.15 -0.6,3.85 1.55,6 2,2 4.55,2.2 7.15,0.65 z"
           id="path13" /></g></g></g></svg>
