<?xml version="1.0" encoding="UTF-8" standalone="no"?>
<!-- Created with Inkscape (http://www.inkscape.org/) -->

<svg
   width="40.574471mm"
   height="42.110706mm"
   viewBox="0 0 40.574471 42.110706"
   version="1.1"
   id="svg1"
   xml:space="preserve"
   xmlns="http://www.w3.org/2000/svg"
   xmlns:svg="http://www.w3.org/2000/svg"><defs
     id="defs1" /><g
     id="layer1"
     transform="translate(-90.260199,-156.60051)"><rect
       style="fill:#ffffff;fill-opacity:1;stroke-width:2"
       id="rect1"
       width="26.579472"
       height="25.899273"
       x="97.203957"
       y="165.63924" /><path
       style="fill:#3b82f6;fill-opacity:1"
       d="m 98.69978,198.51946 c -4.088866,-0.82808 -7.450185,-4.31096 -8.226612,-8.52414 -0.181609,-0.98547 -0.250423,-5.73779 -0.193475,-13.36146 0.07846,-10.50293 0.140386,-11.96573 0.55134,-13.02262 1.157987,-2.9781 3.745557,-5.53072 6.62494,-6.53546 1.235331,-0.43106 2.488137,-0.47593 13.270357,-0.47526 10.77765,6.6e-4 12.01911,0.0452 13.09688,0.47028 2.99428,1.18087 5.53204,3.75594 6.53546,6.63154 0.43245,1.23931 0.476,2.51394 0.476,13.93182 0,11.41788 -0.0436,12.69251 -0.476,13.93182 -1.00484,2.87968 -3.55861,5.46821 -6.53546,6.62443 -1.05898,0.41131 -2.44858,0.46826 -12.56771,0.5151 -6.25739,0.0289 -11.907469,-0.0548 -12.55572,-0.18605 z m 9.37794,-13.20788 c 0.0884,-0.14305 0.0822,-0.67883 -0.0138,-1.19063 -0.14827,-0.79032 -0.28177,-0.93054 -0.88596,-0.93054 -1.21599,0 -1.34639,-0.37669 -1.34639,-3.88938 v -3.25437 h 1.19063 1.19062 v -1.05833 -1.05834 h -1.19062 -1.19063 v -1.45521 -1.4552 h -1.45521 -1.4552 v 1.4552 c 0,1.44051 -0.008,1.45521 -0.79375,1.45521 -0.74966,0 -0.79375,0.0588 -0.79375,1.05834 0,0.99953 0.0441,1.05833 0.79375,1.05833 h 0.79375 v 3.58501 c 0,3.95306 0.2419,4.82979 1.52468,5.52581 0.81651,0.44304 3.38596,0.55206 3.63191,0.1541 z m 9.32388,-0.25951 c 2.5185,-1.14327 2.93687,-4.21998 0.75378,-5.5434 -0.44795,-0.27156 -1.70423,-0.69282 -2.79172,-0.93613 -2.16914,-0.48533 -2.65295,-0.75717 -2.65295,-1.49063 0,-0.63028 0.87249,-1.08817 2.07346,-1.08817 0.69504,0 1.10965,0.18438 1.54021,0.68495 0.52504,0.61038 0.72043,0.66695 1.79504,0.51966 1.3351,-0.183 1.43622,-0.40014 0.70372,-1.51118 -1.10211,-1.67168 -3.24214,-2.33383 -5.73774,-1.77534 -2.59706,0.5812 -3.88983,2.65974 -2.91963,4.69426 0.49538,1.03883 1.76486,1.70301 4.19841,2.19658 1.44005,0.29206 2.31528,0.80175 2.31528,1.34831 0,0.13512 -0.25204,0.49772 -0.56009,0.80577 -0.97879,0.97879 -3.29818,0.43282 -3.73556,-0.87932 -0.11535,-0.34606 -2.84832,0.0566 -2.84711,0.41946 5.4e-4,0.16316 0.24113,0.69052 0.53463,1.17192 0.74023,1.21413 2.34828,1.89123 4.49146,1.89123 1.13092,0 2.10296,-0.17394 2.83881,-0.50797 z"
       id="path1" /></g></svg>
