<svg xmlns="http://www.w3.org/2000/svg" width="800" height="600" data-software-used-string="@tscircuit/core@0.0.733"><style></style><rect class="boundary" x="0" y="0" fill="#000" width="800" height="600"/><rect class="pcb-boundary" fill="none" stroke="#fff" stroke-width="0.3" x="47.05882352941177" y="64.70588235294116" width="705.8823529411766" height="470.5882352941176"/><path class="pcb-board" d="M 47.05882352941177 535.2941176470588 L 752.9411764705883 535.2941176470588 L 752.9411764705883 64.70588235294116 L 47.05882352941177 64.70588235294116 Z" fill="none" stroke="rgba(255, 255, 255, 0.5)" stroke-width="4.705882352941177"/><polygon class="pcb-pad" fill="rgb(200, 52, 52)" points="188.2352941176471,205.88235294117646 296.47058823529414,205.88235294117646 381.17647058823536,300 296.47058823529414,394.11764705882354 188.2352941176471,394.11764705882354" data-layer="top"/><polygon class="pcb-solder-mask" fill="rgb(200, 52, 52)" points="188.2352941176471,205.88235294117646 296.47058823529414,205.88235294117646 381.17647058823536,300 296.47058823529414,394.11764705882354 188.2352941176471,394.11764705882354" data-layer="top"/><polygon class="pcb-pad" fill="rgb(200, 52, 52)" points="315.2941176470589,205.88235294117646 484.7058823529412,205.88235294117646 569.4117647058824,300 484.7058823529412,394.11764705882354 315.2941176470589,394.11764705882354 400.00000000000006,300" data-layer="top"/><polygon class="pcb-pad" fill="rgb(200, 52, 52)" points="503.52941176470597,205.88235294117646 682.3529411764707,205.88235294117646 682.3529411764707,394.11764705882354 503.52941176470597,394.11764705882354 588.2352941176471,300" data-layer="top"/></svg>
